<svg width="24" height="24" viewBox="0 0 24 24" fill="none" xmlns="http://www.w3.org/2000/svg">
<path d="M23.625 17.1879H21.75V6.99373C21.75 6.76932 21.5821 6.5877 21.375 6.5877H18.375V0.497104C18.375 0.272686 18.2071 0.0910645 18 0.0910645H6C5.79292 0.0910645 5.625 0.272686 5.625 0.497104V6.5877H2.625C2.41793 6.5877 2.25 6.76932 2.25 6.99373V17.1879H0.375C0.167925 17.1879 0 17.3695 0 17.594C0 17.8184 0.167925 18 0.375 18H23.625C23.8321 18 24 17.8184 24 17.594C24 17.3695 23.8321 17.1879 23.625 17.1879ZM3 11.6784C3.64729 11.3399 4.20281 11.366 4.74315 11.7734C6.00349 12.6315 6.95231 12.2469 7.53202 11.7643C8.21779 11.3155 8.8167 11.3146 9.40523 11.7564C9.96349 12.2029 10.4606 12.3706 10.8928 12.3706C11.4655 12.3706 11.924 12.0756 12.2591 11.7425C12.8747 11.2532 13.4822 11.2607 14.1571 11.7556C15.3735 12.7334 16.3242 12.2846 16.8924 11.7492C17.5054 11.2294 18.1322 11.2349 18.8487 11.7548C19.5337 12.3097 20.2675 12.4223 21 12.1056V17.1447H3V11.6784ZM17.25 1.15692C17.25 1.59426 16.9217 1.94995 16.5179 1.94995C16.1142 1.94995 15.7857 1.59426 15.7857 1.15692C15.7857 1.0915 15.7932 1.02646 15.8077 0.963806H17.228C17.2425 1.02646 17.25 1.0915 17.25 1.15692ZM6.95051 0.963806H8.37086C8.3853 1.02646 8.39284 1.0915 8.39284 1.15692C8.39284 1.59426 8.06452 1.94995 7.66076 1.94995C7.257 1.94995 6.92854 1.59426 6.92854 1.15692C6.92854 1.0915 6.93604 1.02646 6.95051 0.963806ZM9.16481 0.963806H10.5851C10.5996 1.02646 10.6071 1.0915 10.6071 1.15692C10.6071 1.59426 10.2788 1.94995 9.87506 1.94995C9.4713 1.94995 9.14284 1.59426 9.14284 1.15692C9.14284 1.0915 9.15034 1.02646 9.16481 0.963806ZM11.3791 0.963806H12.7994C12.8139 1.02646 12.8214 1.0915 12.8214 1.15692C12.8214 1.59426 12.4931 1.94995 12.0894 1.94995C11.6856 1.94995 11.3571 1.59426 11.3571 1.15692C11.3571 1.0915 11.3646 1.02646 11.3791 0.963806ZM13.5934 0.963806H15.0137C15.0282 1.02646 15.0357 1.0915 15.0357 1.15692C15.0357 1.59426 14.7074 1.94995 14.3037 1.94995C13.8999 1.94995 13.5714 1.59426 13.5714 1.15692C13.5714 1.0915 13.5789 1.02646 13.5934 0.963806ZM6.375 1.94017C6.62955 2.42807 7.10734 2.76203 7.66076 2.76203C8.10296 2.76203 8.49604 2.54691 8.76784 2.21315C9.03964 2.54691 9.43275 2.76203 9.87506 2.76203C10.3173 2.76203 10.7103 2.54691 10.9821 2.21315C11.2539 2.54691 11.647 2.76203 12.0894 2.76203C12.5316 2.76203 12.9246 2.54691 13.1964 2.21315C13.4682 2.54691 13.8613 2.76203 14.3037 2.76203C14.7459 2.76203 15.1389 2.54691 15.4107 2.21315C15.6825 2.54691 16.0756 2.76203 16.5179 2.76203C16.9601 2.76203 17.3532 2.54691 17.625 2.21319V6.5877H6.375V1.94017ZM6 7.39977H18H21V11.2042C20.4031 11.588 19.8566 11.5575 19.2823 11.0926C18.2844 10.3674 17.298 10.3737 16.415 11.1231C15.8467 11.6588 15.2878 11.6529 14.5913 11.0938C13.6368 10.3923 12.6698 10.3955 11.7949 11.1045C11.7841 11.1132 11.7737 11.1227 11.7638 11.1327C11.1905 11.712 10.6003 11.7029 9.84173 11.0957C9.00056 10.4649 8.06066 10.4609 7.12279 11.0835C7.11071 11.0918 7.09901 11.1005 7.08784 11.1096C6.50685 11.6017 5.88904 11.5942 5.15715 11.0966C4.49584 10.5975 3.77182 10.5048 3 10.8023V7.39977H6V7.39977Z" fill="#CD7891"/>
</svg>
