<svg width="1225" height="788" viewBox="0 0 1225 788" fill="none" xmlns="http://www.w3.org/2000/svg">
<path d="M511.5 776.3C348.1 658.1 142.6 515.9 93.8999 307.7C67.5999 195.4 134.2 87.3 232.9 37.9C365.7 -28.6 468.3 101.7 473.9 219.5C474.7 236.3 553.8 234.2 553.1 219C541.5 -23.5 240.3 -55.9999 86.2999 80.3001C-185.5 320.9 263.9 658.9 435.2 782.8C453.3 795.7 516 779.6 511.5 776.3Z" fill="#FFC0CC"/>
<path d="M555.2 272.7C622.1 206.4 695.1 137.8 786.8 108.7C956.1 55 907.6 278.9 872.8 346.6C801.8 484.6 674.4 592.9 561.6 696C539.1 716.5 600.5 765.7 625.3 743C766.1 614.4 1012.1 421.4 977.8 204.6C964.2 118.4 882 52.7 799.3 43.1C682 29.5 566.5 151.4 491.6 225.7C469.6 247.5 531.4 296.3 555.2 272.7Z" fill="#FFC0CC"/>
<path d="M754.522 776.014C591.122 657.814 385.622 515.614 336.922 307.414C310.622 195.114 377.222 87.0144 475.922 37.6144C608.722 -28.8856 711.322 101.414 716.922 219.214C717.722 236.014 796.822 233.914 796.122 218.714C784.522 -23.7856 483.322 -56.2856 329.322 80.0144C57.5224 320.614 506.922 658.614 678.222 782.514C696.322 795.414 759.022 779.314 754.522 776.014Z" fill="#FF8096"/>
<path d="M798.222 272.414C865.122 206.114 938.122 137.514 1029.82 108.414C1199.12 54.7144 1150.62 278.614 1115.82 346.314C1044.82 484.314 917.422 592.614 804.622 695.714C782.122 716.214 843.522 765.414 868.322 742.714C1009.12 614.114 1255.12 421.114 1220.82 204.314C1207.22 118.114 1125.02 52.4144 1042.32 42.8144C925.022 29.2144 809.522 151.114 734.622 225.414C712.622 247.214 774.422 296.014 798.222 272.414Z" fill="#FF8096"/>
</svg>
