<svg width="24" height="24" viewBox="0 0 24 24" fill="none" xmlns="http://www.w3.org/2000/svg">
<path d="M24 12C24 10.4608 22.5191 9.20859 20.6988 9.20859C20.1537 9.20859 19.1002 9.32602 17.9548 9.53343C18.9114 8.87017 19.7394 8.20828 20.1248 7.82286C21.412 6.53571 21.5736 4.60311 20.4853 3.51472C19.3969 2.42627 17.4643 2.58804 16.1772 3.8752C15.7918 4.26061 15.1298 5.08867 14.4666 6.04517C14.674 4.89982 14.7915 3.84627 14.7915 3.30123C14.7914 1.48094 13.5392 0 12 0C10.4608 0 9.20859 1.48094 9.20859 3.30123C9.20859 3.84627 9.32607 4.89987 9.53343 6.04522C8.87017 5.08873 8.20828 4.26067 7.82286 3.8752C6.53571 2.58804 4.60311 2.42643 3.51472 3.51472C2.42638 4.60311 2.58809 6.53571 3.87525 7.82286C4.26067 8.20828 5.08867 8.87017 6.04522 9.53343C4.89987 9.32607 3.84632 9.20859 3.30123 9.20859C1.48094 9.20859 0 10.4608 0 12C0 13.5392 1.48094 14.7914 3.30123 14.7914C3.84627 14.7914 4.89987 14.6739 6.04522 14.4666C5.08867 15.1298 4.26067 15.7918 3.87525 16.1771C2.58809 17.4643 2.42638 19.3969 3.51477 20.4853C3.98461 20.9551 4.6387 21.2113 5.34634 21.2113C5.45711 21.2113 5.56931 21.205 5.68223 21.1923C6.46219 21.1044 7.22244 20.7252 7.82286 20.1248C8.20828 19.7394 8.87023 18.9113 9.53348 17.9548C9.32607 19.1001 9.20864 20.1537 9.20864 20.6988C9.20864 22.5191 10.4608 24 12.0001 24C13.5393 24 14.7915 22.5191 14.7915 20.6988C14.7915 20.1537 14.674 19.1001 14.4666 17.9547C15.1299 18.9113 15.7918 19.7393 16.1772 20.1248C16.7777 20.7252 17.5379 21.1044 18.3179 21.1923C18.4309 21.205 18.543 21.2113 18.6538 21.2113C19.3614 21.2113 20.0155 20.9551 20.4853 20.4853C21.5737 19.3969 21.412 17.4643 20.1249 16.1771C19.7395 15.7917 18.9114 15.1298 17.9549 14.4666C19.1002 14.674 20.1538 14.7914 20.6988 14.7914C22.5191 14.7914 24 13.5392 24 12ZM17.2887 4.9868C17.9515 4.32413 18.9062 4.15901 19.3736 4.62633C19.841 5.0937 19.6759 6.04852 19.0131 6.71126C18.6094 7.11496 17.488 7.98489 16.3101 8.74168C15.9621 8.96534 15.6521 9.15163 15.3776 9.30647C15.1757 9.05374 14.9462 8.82422 14.6935 8.62231C14.8483 8.34783 15.0346 8.03792 15.2583 7.68992C16.0152 6.51207 16.885 5.39056 17.2887 4.9868ZM9.24904 12C9.24904 10.4831 10.4831 9.24904 12 9.24904C13.5169 9.24904 14.751 10.4831 14.751 12C14.751 13.5169 13.5169 14.751 12 14.751C10.4831 14.751 9.24904 13.5169 9.24904 12ZM12 1.57207C12.6609 1.57207 13.2193 2.36392 13.2193 3.30123C13.2193 3.87221 13.0414 5.28031 12.7437 6.64837C12.656 7.05156 12.5688 7.40165 12.4844 7.7048C12.3253 7.68698 12.1638 7.67698 12 7.67698C11.8362 7.67698 11.6747 7.68698 11.5156 7.7048C11.4312 7.4016 11.344 7.05156 11.2563 6.64837C10.9586 5.28031 10.7807 3.87216 10.7807 3.30123C10.7807 2.36392 11.3391 1.57207 12 1.57207ZM4.98686 6.71126C4.32413 6.04852 4.15901 5.0937 4.62638 4.62633C4.80649 4.44622 5.05891 4.36007 5.33916 4.36007C5.7862 4.36007 6.30393 4.57943 6.71131 4.9868C7.11507 5.39056 7.98494 6.51202 8.74179 7.68992C8.96549 8.03808 9.15168 8.34793 9.30653 8.62236C9.05384 8.82427 8.82437 9.05374 8.62247 9.30642C8.34799 9.15163 8.03808 8.96534 7.69002 8.74168C6.51202 7.98484 5.39056 7.11496 4.98686 6.71126ZM3.30123 13.2193C2.36392 13.2193 1.57207 12.6609 1.57207 12C1.57207 11.3391 2.36392 10.7807 3.30123 10.7807C3.87221 10.7807 5.28031 10.9586 6.64837 11.2563C7.05156 11.344 7.40171 11.4312 7.70485 11.5156C7.68704 11.6747 7.67703 11.8361 7.67703 11.9999C7.67703 12.1638 7.68704 12.3252 7.70485 12.4843C7.40171 12.5687 7.05156 12.6559 6.64837 12.7436C5.28031 13.0414 3.87221 13.2193 3.30123 13.2193ZM6.7112 19.0131C6.36661 19.3577 5.92737 19.5827 5.506 19.6301C5.29692 19.6538 4.90443 19.6518 4.62633 19.3736C4.15895 18.9062 4.32402 17.9514 4.9868 17.2887C5.39056 16.885 6.51197 16.0151 7.68987 15.2583C8.03803 15.0346 8.34783 14.8484 8.62236 14.6935C8.82427 14.9462 9.05379 15.1757 9.30647 15.3776C9.15157 15.6522 8.96534 15.9621 8.74168 16.31C7.98484 17.488 7.11496 18.6094 6.7112 19.0131ZM12 22.4279C11.3391 22.4279 10.7807 21.6361 10.7807 20.6988C10.7807 20.1278 10.9586 18.7197 11.2563 17.3516C11.344 16.9485 11.4312 16.5983 11.5155 16.2952C11.6747 16.313 11.8361 16.323 11.9999 16.323C12.1638 16.323 12.3252 16.313 12.4844 16.2952C12.5688 16.5984 12.656 16.9485 12.7437 17.3516C13.0414 18.7197 13.2193 20.1278 13.2193 20.6988C13.2193 21.6361 12.6609 22.4279 12 22.4279ZM19.0132 17.2887C19.6759 17.9515 19.841 18.9063 19.3737 19.3737C19.0956 19.6518 18.703 19.6537 18.494 19.6302C18.0727 19.5827 17.6334 19.3578 17.2888 19.0132C16.8851 18.6094 16.0152 17.488 15.2583 16.3101C15.0347 15.9621 14.8485 15.6523 14.6936 15.3777C14.9463 15.1757 15.1757 14.9463 15.3777 14.6936C15.6522 14.8484 15.962 15.0347 16.3101 15.2583C17.488 16.0151 18.6094 16.885 19.0132 17.2887ZM17.3517 12.7437C16.9486 12.656 16.5983 12.5688 16.2952 12.4844C16.313 12.3253 16.323 12.1638 16.323 12C16.323 11.8362 16.313 11.6747 16.2952 11.5156C16.5984 11.4312 16.9485 11.344 17.3517 11.2563C18.7197 10.9585 20.1278 10.7807 20.6988 10.7807C21.6361 10.7807 22.4279 11.339 22.4279 12C22.4279 12.661 21.6361 13.2193 20.6988 13.2193C20.1278 13.2193 18.7197 13.0414 17.3517 12.7437Z" fill="#CD7891"/>
</svg>
